Coordinates
version=1
nRows=21
nColumns=12
inDegrees=yes

Units are S.I. units (second, meters, Newtons, ...)
Angles are in degrees

endheader
time	SC_y	SC_z	SC_x	AC_y	AC_z	AC_x	GH_y	GH_z	GH_yy	EL_x	PS_y
       0.0              -47.15          6.521          61.85           58.0         -3.717         -8.765          76.26          57.88          115.2          50.27          76.54
   0.03522              -47.14           6.52          61.85           58.0         -3.716         -8.764          76.24          57.87          115.2          50.28          76.53
   0.07045              -47.14          6.519          61.85          57.99         -3.715         -8.763          76.21          57.86          115.1          50.29          76.53
    0.1057              -47.13          6.518          61.85          57.99         -3.714         -8.763          76.18          57.86          115.1           50.3          76.52
    0.1409              -47.13          6.517          61.85          57.99         -3.712         -8.762          76.16          57.85          115.1          50.32          76.51
    0.1761              -47.12          6.516          61.86          57.99         -3.711         -8.761          76.12          57.84          115.1          50.33          76.51
    0.2113              -47.11          6.515          61.86          57.98          -3.71          -8.76          76.09          57.83          115.0          50.34           76.5
    0.2466              -47.11          6.514          61.86          57.98         -3.709         -8.758          76.06          57.82          115.0          50.36          76.49
    0.2818               -47.1          6.513          61.86          57.98         -3.707         -8.757          76.02          57.81          115.0          50.38          76.49
     0.317              -47.09          6.511          61.86          57.98         -3.706         -8.756          75.98           57.8          114.9          50.39          76.48
    0.3522              -47.08           6.51          61.86          57.97         -3.704         -8.754          75.93          57.79          114.9          50.41          76.47
    0.3875              -47.07          6.508          61.86          57.97         -3.702         -8.753          75.89          57.78          114.9          50.43          76.46
    0.4227              -47.06          6.506          61.87          57.97           -3.7         -8.751          75.84          57.77          114.8          50.46          76.45
    0.4579              -47.05          6.504          61.87          57.96         -3.698          -8.75          75.78          57.75          114.8          50.48          76.43
    0.4931              -47.04          6.502          61.87          57.96         -3.696         -8.748          75.72          57.74          114.7          50.51          76.42
    0.5283              -47.02            6.5          61.87          57.95         -3.694         -8.746          75.66          57.72          114.7          50.53          76.41
    0.5636              -47.01          6.498          61.87          57.95         -3.691         -8.743          75.59           57.7          114.6          50.57          76.39
    0.5988              -46.99          6.495          61.88          57.94         -3.688         -8.741          75.51          57.68          114.5           50.6          76.38
     0.634              -46.98          6.492          61.88          57.94         -3.685         -8.738          75.43          57.66          114.5          50.64          76.36
    0.6692              -46.96          6.489          61.88          57.93         -3.681         -8.735          75.34          57.64          114.4          50.68          76.34
    0.7045              -46.94          6.486          61.89          57.92         -3.678         -8.732          75.24          57.61          114.3          50.72          76.32
